# xmcd CD database file generated by Grip 3.2.0
# 
# Track frame offsets:
#       150
#       51487
#       57377
#       79652
#       99815
#       131003
#       151817
#       170357
#       205517
# 
# Disc length: 3071 seconds
# 
# Revision: 2
# Processed by: cddbd v1.5.2PL0 Copyright (c) Steve Scherf et al.
# Submitted via: Grip 3.2.0
# 
DISCID=6b0bfd09
DTITLE=Bernard Allison - Energized 2
DYEAR=2006
DGENRE=Other
TTITLE0=The Walk
TTITLE1=Step Down
TTITLE2=Talking Guitar
TTITLE3=Snake Bit Again
TTITLE4=A Change Must Come
TTITLE5=Too Cool
TTITLE6=Wah Wah Action
TTITLE7=Don't Be Confused
TTITLE8=I Just Came Back To Say Goodbye
EXTD=
EXTT0=
EXTT1=
EXTT2=
EXTT3=
EXTT4=
EXTT5=
EXTT6=
EXTT7=
EXTT8=
PLAYORDER=
